:SAMPLES-PER-SECOND 30
:FULLY-SPECIFIED
:DEGREES
221
root  62.5528 35.2132 20.3619 -141.035 6.38676 176.032
RightUpLeg  -81.412 -22.5056 31.5532
RightLeg  49.0773 -6.1456 -7.89496
RightFoot  -14.9817 -0.457572 -11.1795
RightToes  0.000482159 0.542163 -0.142577
Spine  70.0055 -4.2701 5.22654
Spine1  6.59831 -0.00956483 -4.30128
HEad  -37.6529 0.94037 -10.133
LeftShoulder1  4.34634 -22.9078 -8.97165
LeftArm  -95.534 -75.3514 35.813
LeftForeArm  -2.98304 -14.2928 -1.42763
LeftHand  -0.25398 0.0180481 5.50724
RightShoulder  0.700458 6.42513 -1.53055
RightArm  -87.5356 62.8336 -24.9677
RightForeArm  -21.317 12.2182 1.38025
RightHand  -0.441596 2.11291 -7.0224
LeftUpLeg  -81.1934 20.7637 -28.8888
LeftLeg  44.3308 0.0338241 0.447253
LeftFoot  -4.82902 -0.305264 5.83549
LeftToes  1.06248e-005 4.65855e-005 -8.18498e-006
222
root  62.472 35.2321 20.4032 -141.216 6.42213 176.098
RightUpLeg  -81.1357 -22.395 31.1437
RightLeg  48.9585 -6.27455 -8.01709
RightFoot  -14.7246 -0.426381 -11.0388
RightToes  0.000482159 0.542163 -0.142577
Spine  69.9823 -4.24989 5.27654
Spine1  6.83744 0.0709746 -4.22629
HEad  -37.2784 0.909611 -10.1713
LeftShoulder1  4.61798 -22.0235 -10.7826
LeftArm  -101.792 -76.9738 43.3681
LeftForeArm  -1.42428 -13.3456 -1.62142
LeftHand  -0.25398 0.0180481 5.50724
RightShoulder  0.708743 6.38329 -1.40291
RightArm  -88.0036 63.191 -25.9039
RightForeArm  -22.4176 12.2065 1.50826
RightHand  -0.844206 3.20608 -11.5816
LeftUpLeg  -81.0063 20.717 -28.8233
LeftLeg  44.2627 0.176886 0.596437
LeftFoot  -4.77045 -0.312597 5.9721
LeftToes  1.06248e-005 4.65855e-005 -8.18498e-006
223
root  62.3643 35.2637 20.4796 -141.513 6.42816 176.132
RightUpLeg  -80.8311 -22.5573 30.9608
RightLeg  48.6004 -6.32008 -7.97158
RightFoot  -14.584 -0.411686 -11.0333
RightToes  0.000482159 0.542163 -0.142577
Spine  69.8099 -4.18965 5.38566
Spine1  7.09416 0.145289 -3.8981
HEad  -36.7933 0.859796 -10.4667
LeftShoulder1  4.70279 -21.8964 -11.2574
LeftArm  -106.244 -77.492 48.5782
LeftForeArm  -1.02024 -11.9099 -1.43813
LeftHand  -0.25398 0.0180481 5.50724
RightShoulder  0.664628 6.11584 -1.69868
RightArm  -88.3411 63.994 -27.3921
RightForeArm  -24.3968 11.2929 1.53434
RightHand  -1.4928 4.92757 -17.0255
LeftUpLeg  -80.6204 20.6561 -28.7571
LeftLeg  43.9975 0.249744 0.668608
LeftFoot  -4.6624 -0.326454 6.19181
LeftToes  1.06248e-005 4.65855e-005 -8.18498e-006
224
root  62.2284 35.3249 20.5853 -141.962 6.45409 176.207
RightUpLeg  -80.372 -22.929 30.9707
RightLeg  47.9438 -6.35974 -7.83811
RightFoot  -14.4199 -0.396126 -11.0852
RightToes  0.000482159 0.542163 -0.142577
Spine  69.6214 -4.26779 5.56436
Spine1  7.25678 0.180343 -3.84542
HEad  -36.309 1.1408 -11.0685
LeftShoulder1  4.38866 -22.9803 -9.10539
LeftArm  -102.967 -76.3925 45.18
LeftForeArm  -1.4847 -10.6843 -0.66328
LeftHand  -0.25398 0.0180481 5.50724
RightShoulder  0.634368 5.97412 -1.94453
RightArm  -89.2139 65.0517 -29.4615
RightForeArm  -26.7338 9.54322 1.4322
RightHand  -2.18793 6.48328 -21.5841
LeftUpLeg  -79.9386 20.6998 -28.6458
LeftLeg  43.4575 0.193788 0.603788
LeftFoot  -4.65328 -0.344547 6.45942
LeftToes  1.06248e-005 4.65855e-005 -8.18498e-006
225
root  62.0759 35.4198 20.7223 -142.564 6.55656 176.373
RightUpLeg  -79.6131 -23.2779 30.8708
RightLeg  47.0671 -6.32599 -7.5673
RightFoot  -14.0053 -0.354625 -11.1547
RightToes  0.000482159 0.542163 -0.142577
Spine  69.4791 -4.43638 5.79094
Spine1  7.30175 0.25164 -4.18074
HEad  -36.0086 1.79229 -11.8318
LeftShoulder1  3.97425 -24.2369 -6.56644
LeftArm  -98.8736 -75.1939 40.8801
LeftForeArm  -1.60264 -9.46419 0.130771
LeftHand  -0.25398 0.0180481 5.50724
RightShoulder  0.647119 5.99737 -1.81051
RightArm  -91.2906 66.1854 -32.2646
RightForeArm  -29.1076 7.42749 1.24493
RightHand  -2.646 7.24433 -24.3942
LeftUpLeg  -79.0399 20.9317 -28.5693
LeftLeg  42.6285 0.107564 0.507765
LeftFoot  -4.68171 -0.367011 6.78039
LeftToes  1.06248e-005 4.65855e-005 -8.18498e-006
226
root  61.9145 35.543 20.891 -143.287 6.6904 176.613
RightUpLeg  -78.5668 -23.5329 30.5425
RightLeg  46.0619 -6.12578 -7.09351
RightFoot  -13.3066 -0.28463 -11.3346
RightToes  0.000482159 0.542163 -0.142577
Spine  69.2685 -4.52949 6.02345
Spine1  7.27796 0.356918 -4.44367
HEad  -35.9793 2.68171 -12.695
LeftShoulder1  3.93821 -24.3434 -6.37208
LeftArm  -100.545 -75.546 43.1226
LeftForeArm  -1.19418 -7.53097 0.259719
LeftHand  -0.25398 0.0180481 5.50724
RightShoulder  0.666699 5.9629 -1.54586
RightArm  -94.6182 67.5033 -35.6618
RightForeArm  -30.6733 5.33665 0.930913
RightHand  -2.8062 7.24529 -25.7784
LeftUpLeg  -77.9663 21.1884 -28.4127
LeftLeg  41.526 0.210084 0.593873
LeftFoot  -4.50731 -0.403031 7.19394
LeftToes  1.06248e-005 4.65855e-005 -8.18498e-006
227
root  61.7359 35.6999 21.0771 -144.149 6.80011 176.907
RightUpLeg  -77.2668 -23.8675 30.1722
RightLeg  44.834 -5.83419 -6.49763
RightFoot  -12.4544 -0.19649 -11.5485
RightToes  0.000482159 0.542163 -0.142577
Spine  68.9126 -4.52132 6.22287
Spine1  7.24232 0.439464 -4.36751
HEad  -36.0973 3.79865 -13.7168
LeftShoulder1  4.12738 -23.7191 -7.51276
LeftArm  -104.748 -76.6031 48.3864
LeftForeArm  -1.24624 -5.02767 -0.01025
LeftHand  -0.25398 0.0180481 5.50724
RightShoulder  0.663351 5.82235 -1.46604
RightArm  -98.0568 69.1355 -38.6791
RightForeArm  -29.9188 3.46898 0.592792
RightHand  -2.85364 7.06247 -26.5495
LeftUpLeg  -76.5809 21.3047 -27.8733
LeftLeg  40.2242 0.553759 0.890093
LeftFoot  -4.09193 -0.458193 7.61099
LeftToes  1.06248e-005 4.65855e-005 -8.18498e-006
